# xmcd
# 
# Track frame offsets:
#     150
#     11877
#     23896
#     37193
#     48453
#     61790
#     70966
#     80902
#     90975
#     103343
#     119700
#     132358
#     145270
#     159242
#     171156
#     188497
# 
# Disc length: 2706
# 
# Revision: 0
# Processed by: cddbd v1.5.2PL0 Copyright (c) Steve Scherf et al.
# Submitted via: fre:ac v1.1beta1pre4
# 
DISCID=e20a9010
DTITLE=Various Artist - I Don't Wanna Play House
DYEAR=0
DGENRE=Country
TTITLE0=Tammy Wynette - I Don't Wanna Play House
TTITLE1=Tammy Wynette - Stand By Your Man
TTITLE2=Tammy Wynette and George Jones - We're Gonna Hold On
TTITLE3=Tammy Wynette - Sweet Dreams
TTITLE4=Tammy Wynette - Apartment #9
TTITLE5=Tammy Wynette - Your Good Girl's Gonna Bad
TTITLE6=Tammy Wynette - Lonely Street
TTITLE7=Tammy Wynette - I Believe
TTITLE8=Tammy Wynette - You'll Never Walk Alone
TTITLE9=Tammy Wynette - How Great Thou Art
TTITLE10=Tammy Wynette - Take Me To Your World
TTITLE11=Tammy Wynette - Too Far Gone
TTITLE12=Tammy Wynette - He
TTITLE13=Tammy Wynette - He Loves Me All The Way
TTITLE14=Tammy Wynette - I Don't Think About Him No More
TTITLE15=Tammy Wynette - No Change
EXTD=
EXTT0=
EXTT1=
EXTT2=
EXTT3=
EXTT4=
EXTT5=
EXTT6=
EXTT7=
EXTT8=
EXTT9=
EXTT10=
EXTT11=
EXTT12=
EXTT13=
EXTT14=
EXTT15=
PLAYORDER=
